<?xml version="1.0" encoding="UTF-8"?>
<svg version="1.1" xmlns="http://www.w3.org/2000/svg" width="400" height="400">
<path d="M0 0 C2.51337808 2.13695869 2.51337808 2.13695869 5.2578125 3.64453125 C7.69557592 5.15692294 8.86079557 6.43592002 10.46875 8.78125 C12.47634889 11.60619195 14.54517034 14.18317946 16.90625 16.71875 C34.86134262 37.05200059 44.03941288 64.44024436 43.90625 91.28125 C43.89887817 93.05290527 43.89887817 93.05290527 43.89135742 94.86035156 C43.45275129 127.78055364 29.51333518 155.72699387 6.41674805 178.69775391 C-2.07901178 186.88028136 -11.75029797 193.97069614 -22.40625 199.09375 C-23.24671875 199.49980469 -24.0871875 199.90585937 -24.953125 200.32421875 C-54.22024278 213.46208239 -82.65812897 211.72738206 -113.40625 206.09375 C-113.40625 205.43375 -113.40625 204.77375 -113.40625 204.09375 C-114.23125 204.00867188 -115.05625 203.92359375 -115.90625 203.8359375 C-120.17411579 202.93092132 -123.56518994 201.23314052 -127.40625 199.21875 C-128.09203125 198.86683594 -128.7778125 198.51492188 -129.484375 198.15234375 C-130.82710638 197.46304081 -132.16831208 196.77075605 -133.5078125 196.07519531 C-136.12719881 194.72103726 -138.76559033 193.40582778 -141.40625 192.09375 C-141.40625 191.43375 -141.40625 190.77375 -141.40625 190.09375 C-142.39625 190.09375 -143.38625 190.09375 -144.40625 190.09375 C-144.40625 189.43375 -144.40625 188.77375 -144.40625 188.09375 C-145.25123047 187.72443359 -145.25123047 187.72443359 -146.11328125 187.34765625 C-150.81114384 184.77863769 -154.52044827 180.73274305 -158.40625 177.09375 C-159.54513672 176.05347656 -159.54513672 176.05347656 -160.70703125 174.9921875 C-167.3057739 168.73334456 -172.36552629 161.61322316 -177.40625 154.09375 C-178.27443359 152.82724609 -178.27443359 152.82724609 -179.16015625 151.53515625 C-195.14430725 126.78684934 -197.3917554 93.41142069 -192.40625 65.09375 C-190.66838514 57.53098131 -187.82814357 50.45685292 -184.78125 43.34375 C-184.48001221 42.63919678 -184.17877441 41.93464355 -183.8684082 41.20874023 C-181.65317466 36.21721233 -181.65317466 36.21721233 -179.40625 35.09375 C-178.73598962 33.42852532 -178.070124 31.76153102 -177.40625 30.09375 C-160.84525385 2.97739366 -134.67308718 -16.32494717 -103.81640625 -23.94140625 C-67.39888045 -32.24240129 -28.85727264 -23.89258057 0 0 Z " fill="#191919" transform="translate(275.40625,107.90625)"/>
<path d="M0 0 C27.72 0 55.44 0 84 0 C84 14 84 14 80 19 C77.31707764 19.60127258 77.31707764 19.60127258 74.22167969 19.56762695 C72.48032745 19.56706047 72.48032745 19.56706047 70.70379639 19.56648254 C69.45576233 19.54067612 68.20772827 19.51486969 66.921875 19.48828125 C65.64016418 19.48120651 64.35845337 19.47413177 63.03790283 19.46684265 C59.63768384 19.44779234 56.23854042 19.39871189 52.83874512 19.34332275 C49.36660309 19.29208578 45.89428647 19.26931933 42.421875 19.24414062 C35.61409813 19.1905884 28.8072115 19.10267049 22 19 C22 25.93 22 32.86 22 40 C36.52 40 51.04 40 66 40 C66 42 66 42 63.6875 44.5625 C61 47 61 47 58 48 C57.71125 48.5775 57.4225 49.155 57.125 49.75 C55.54036609 52.91926782 53.73257509 54.73561521 51 57 C47.58666992 57.56762695 47.58666992 57.56762695 43.73046875 57.48828125 C43.04946609 57.48120651 42.36846344 57.47413177 41.66682434 57.46684265 C39.50590005 57.43900069 37.34763178 57.37629527 35.1875 57.3125 C33.71683448 57.28740332 32.24612807 57.26459253 30.77539062 57.24414062 C27.18176435 57.19346908 23.59382989 57.09563711 20 57 C20 63.6 20 70.2 20 77 C41.12 77 62.24 77 84 77 C84 83.27 84 89.54 84 96 C56.28 96 28.56 96 0 96 C0 64.32 0 32.64 0 0 Z " fill="#F8601F" transform="translate(153,152)"/>
<path d="M0 0 C2.51337808 2.13695869 2.51337808 2.13695869 5.2578125 3.64453125 C7.69557592 5.15692294 8.86079557 6.43592002 10.46875 8.78125 C12.47634889 11.60619195 14.54517034 14.18317946 16.90625 16.71875 C34.86134262 37.05200059 44.03941288 64.44024436 43.90625 91.28125 C43.89887817 93.05290527 43.89887817 93.05290527 43.89135742 94.86035156 C43.45275129 127.78055364 29.51333518 155.72699387 6.41674805 178.69775391 C-2.07901178 186.88028136 -11.75029797 193.97069614 -22.40625 199.09375 C-23.24671875 199.49980469 -24.0871875 199.90585937 -24.953125 200.32421875 C-54.22024278 213.46208239 -82.65812897 211.72738206 -113.40625 206.09375 C-113.40625 205.43375 -113.40625 204.77375 -113.40625 204.09375 C-114.23125 204.00867188 -115.05625 203.92359375 -115.90625 203.8359375 C-120.17411579 202.93092132 -123.56518994 201.23314052 -127.40625 199.21875 C-128.09203125 198.86683594 -128.7778125 198.51492188 -129.484375 198.15234375 C-130.82710638 197.46304081 -132.16831208 196.77075605 -133.5078125 196.07519531 C-136.12719881 194.72103726 -138.76559033 193.40582778 -141.40625 192.09375 C-141.40625 191.43375 -141.40625 190.77375 -141.40625 190.09375 C-142.39625 190.09375 -143.38625 190.09375 -144.40625 190.09375 C-144.40625 189.43375 -144.40625 188.77375 -144.40625 188.09375 C-145.25123047 187.72443359 -145.25123047 187.72443359 -146.11328125 187.34765625 C-150.81114384 184.77863769 -154.52044827 180.73274305 -158.40625 177.09375 C-159.54513672 176.05347656 -159.54513672 176.05347656 -160.70703125 174.9921875 C-167.3057739 168.73334456 -172.36552629 161.61322316 -177.40625 154.09375 C-178.27443359 152.82724609 -178.27443359 152.82724609 -179.16015625 151.53515625 C-195.14430725 126.78684934 -197.3917554 93.41142069 -192.40625 65.09375 C-190.66838514 57.53098131 -187.82814357 50.45685292 -184.78125 43.34375 C-184.48001221 42.63919678 -184.17877441 41.93464355 -183.8684082 41.20874023 C-181.65317466 36.21721233 -181.65317466 36.21721233 -179.40625 35.09375 C-178.73598962 33.42852532 -178.070124 31.76153102 -177.40625 30.09375 C-160.84525385 2.97739366 -134.67308718 -16.32494717 -103.81640625 -23.94140625 C-67.39888045 -32.24240129 -28.85727264 -23.89258057 0 0 Z M-134.421875 -3.328125 C-136.40625 -1.90625 -136.40625 -1.90625 -139.60546875 -0.22265625 C-144.34804318 2.44905699 -148.0685179 6.15162657 -151.96875 9.90625 C-152.69771484 10.59267578 -153.42667969 11.27910156 -154.17773438 11.98632812 C-160.0028476 17.52831253 -165.51773641 23.02474542 -169.34765625 30.16015625 C-170.59734489 32.44279786 -171.97115435 34.632928 -173.34375 36.84375 C-183.5638687 53.91160567 -187.77979595 71.77419305 -187.65625 91.53125 C-187.66398437 92.76423828 -187.67171875 93.99722656 -187.6796875 95.26757812 C-187.65694246 106.03166798 -186.51428471 116.21050727 -182.78125 126.34375 C-182.52255127 127.0555542 -182.26385254 127.7673584 -181.99731445 128.50073242 C-171.65053827 156.12360943 -152.11675362 179.89102505 -125.40625 193.09375 C-95.70127753 206.23754313 -64.78963386 207.85617299 -34.33300781 196.30761719 C-24.93575515 192.61504967 -16.53243973 188.15434401 -8.40625 182.09375 C-7.48328125 181.40539062 -6.5603125 180.71703125 -5.609375 180.0078125 C17.49180705 161.93146384 31.52811186 137.26839677 36.18359375 108.44140625 C37.87243717 93.59792938 37.97153438 77.44837345 33.59375 63.09375 C33.30371094 62.00578125 33.01367188 60.9178125 32.71484375 59.796875 C25.21628631 33.06561583 7.05225246 12.47961819 -15.40625 -2.90625 C-16.83904297 -3.90011719 -16.83904297 -3.90011719 -18.30078125 -4.9140625 C-51.04648811 -25.80760365 -102.72761175 -27.16894249 -134.421875 -3.328125 Z " fill="#8E8E8E" transform="translate(275.40625,107.90625)"/>
<path d="M0 0 C0 0.33 0 0.66 0 1 C-1.74991334 1.02715383 -3.49994945 1.04646551 -5.25 1.0625 C-6.71179688 1.07990234 -6.71179688 1.07990234 -8.203125 1.09765625 C-11 1 -11 1 -12.78076172 0.50439453 C-17.98427548 -0.67827427 -23.564706 -0.18481532 -28.875 -0.1875 C-30.14214844 -0.19974609 -31.40929687 -0.21199219 -32.71484375 -0.22460938 C-34.55369141 -0.22750977 -34.55369141 -0.22750977 -36.4296875 -0.23046875 C-37.54585449 -0.23457764 -38.66202148 -0.23868652 -39.81201172 -0.24291992 C-43.16206279 0.01234894 -45.87024121 0.80870863 -49 2 C-49 3.32 -49 4.64 -49 6 C-49.99257812 6.29132813 -50.98515625 6.58265625 -52.0078125 6.8828125 C-63.85681221 10.42826341 -75.72741926 14.15709736 -85.83984375 21.5078125 C-88 23 -88 23 -91.21484375 24.6875 C-95.97395573 27.37160613 -99.71084678 31.10607155 -103.625 34.875 C-104.36234375 35.56980469 -105.0996875 36.26460937 -105.859375 36.98046875 C-111.33410245 42.19029003 -116.1748964 47.23359092 -119.8203125 53.921875 C-122.35856062 58.393226 -125.21758885 62.6778838 -128 67 C-129.98 66.34 -131.96 65.68 -134 65 C-133.67 63.02 -133.34 61.04 -133 59 C-132.34 59 -131.68 59 -131 59 C-130.75121094 58.30003906 -130.50242187 57.60007813 -130.24609375 56.87890625 C-119.84276918 32.84363913 -94.68838709 14.55806171 -71.20898438 4.85205078 C-47.93035089 -4.12699772 -24.28690271 -4.43499963 0 0 Z " fill="#858585" transform="translate(227,84)"/>
<path d="M0 0 C6.6 0 13.2 0 20 0 C20 7.59 20 15.18 20 23 C17.69 21.02 15.38 19.04 13 17 C8.28428619 18.17892845 6.49481015 20.32365595 3.37890625 23.78515625 C2.26786259 24.96828876 1.15517737 26.14988146 0.04101562 27.33007812 C-1.69992843 29.1879823 -3.42872917 31.05274016 -5.13061523 32.9465332 C-14.65699405 43.4946338 -14.65699405 43.4946338 -20.74658203 44.80810547 C-23.94333599 44.80853893 -26.8648019 44.60246251 -30 44 C-28.67005617 41.04734888 -27.22220684 38.97649784 -24.92724609 36.70019531 C-24.30675385 36.07985413 -23.6862616 35.45951294 -23.04696655 34.82037354 C-22.37920197 34.16293152 -21.71143738 33.5054895 -21.0234375 32.828125 C-20.33819 32.1457074 -19.6529425 31.46328979 -18.94692993 30.76019287 C-16.76094155 28.58538402 -14.56809571 26.41763928 -12.375 24.25 C-10.89016745 22.7752001 -9.40578694 21.29994494 -7.921875 19.82421875 C-4.2864709 16.21084552 -0.64490176 12.60379147 3 9 C2.690625 8.443125 2.38125 7.88625 2.0625 7.3125 C1 5 1 5 0 0 Z " fill="#F55F1E" transform="translate(241,166)"/>
<path d="M0 0 C0 0.33 0 0.66 0 1 C-1.74991334 1.02715383 -3.49994945 1.04646551 -5.25 1.0625 C-6.71179688 1.07990234 -6.71179688 1.07990234 -8.203125 1.09765625 C-11 1 -11 1 -12.78076172 0.50439453 C-17.98427548 -0.67827427 -23.564706 -0.18481532 -28.875 -0.1875 C-30.14214844 -0.19974609 -31.40929687 -0.21199219 -32.71484375 -0.22460938 C-33.94074219 -0.22654297 -35.16664063 -0.22847656 -36.4296875 -0.23046875 C-37.54585449 -0.23457764 -38.66202148 -0.23868652 -39.81201172 -0.24291992 C-43.16206279 0.01234894 -45.87024121 0.80870863 -49 2 C-49 3.32 -49 4.64 -49 6 C-51.10251861 6.67184618 -53.20707763 7.33730968 -55.3125 8 C-57.07013672 8.556875 -57.07013672 8.556875 -58.86328125 9.125 C-62 10 -62 10 -65 10 C-65 8.68 -65 7.36 -65 6 C-71.18190775 7.92551225 -76.89753023 10.2620823 -82.71484375 13.109375 C-83.84599609 13.55023438 -83.84599609 13.55023438 -85 14 C-85.66 13.67 -86.32 13.34 -87 13 C-58.5853592 -2.0474379 -31.53460017 -5.7584922 0 0 Z " fill="#BFBFBE" transform="translate(227,84)"/>
<path d="M0 0 C0 1.65 0 3.3 0 5 C-1.37671875 5.56267578 -1.37671875 5.56267578 -2.78125 6.13671875 C-10.98397832 9.50964549 -10.98397832 9.50964549 -18.6875 13.875 C-22 16 -22 16 -25 16 C-25 15.01 -25 14.02 -25 13 C-26.98 13.33 -28.96 13.66 -31 14 C-27.03175474 8.85597837 -22.24850135 7.35193664 -16.23046875 5.203125 C-13.5050174 4.18808387 -11.05088712 3.06740846 -8.5 1.6875 C-5.2304797 0.11112414 -3.54360283 -0.44295035 0 0 Z " fill="#959595" transform="translate(162,90)"/>
<path d="M0 0 C0.28875 0.639375 0.5775 1.27875 0.875 1.9375 C1.82823451 4.15206079 1.82823451 4.15206079 4 5 C4 4.01 4 3.02 4 2 C4.66 2 5.32 2 6 2 C5.35826346 6.11526292 3.13013842 9.30388435 0.9375 12.75 C0.56044922 13.35199219 0.18339844 13.95398438 -0.20507812 14.57421875 C-1.13193163 16.05249143 -2.06532389 17.52666089 -3 19 C-4.98 18.34 -6.96 17.68 -9 17 C-8.67 15.02 -8.34 13.04 -8 11 C-7.34 11 -6.68 11 -6 11 C-5.7525 10.29875 -5.505 9.5975 -5.25 8.875 C-3.83911974 5.62997541 -2.02104602 2.89683263 0 0 Z " fill="#949494" transform="translate(102,132)"/>
<path d="M0 0 C0 0.33 0 0.66 0 1 C-1.74991334 1.02715383 -3.49994945 1.04646551 -5.25 1.0625 C-6.71179688 1.07990234 -6.71179688 1.07990234 -8.203125 1.09765625 C-11 1 -11 1 -12.78955078 0.50439453 C-17.91222337 -0.66452987 -23.39643736 -0.18481869 -28.625 -0.1875 C-29.85863281 -0.19974609 -31.09226563 -0.21199219 -32.36328125 -0.22460938 C-38.77023214 -0.23482237 -44.72400958 0.05142274 -50.96386719 1.55688477 C-53.66291775 2.14426807 -56.25065806 2.14470221 -59 2 C-56.11975393 0.07983595 -54.95300513 -0.35622055 -51.67578125 -0.8515625 C-50.82032715 -0.98095215 -49.96487305 -1.1103418 -49.08349609 -1.24365234 C-32.02756922 -3.59090854 -16.9140085 -3.08864503 0 0 Z " fill="#CFCFCE" transform="translate(227,84)"/>
<path d="M0 0 C0.33 0 0.66 0 1 0 C1 16.17 1 32.34 1 49 C0.67 49 0.34 49 0 49 C-3.03536334 32.63071916 -2.77972082 16.38049766 0 0 Z " fill="#C3C3C2" transform="translate(83,175)"/>
<path d="M0 0 C1.32 0 2.64 0 4 0 C4 0.99 4 1.98 4 3 C1.91796875 4.60546875 1.91796875 4.60546875 -0.8125 6.1875 C-1.70582031 6.71730469 -2.59914062 7.24710937 -3.51953125 7.79296875 C-6 9 -6 9 -9 9 C-9 8.01 -9 7.02 -9 6 C-10.98 6.33 -12.96 6.66 -15 7 C-9.85714286 1.42857143 -9.85714286 1.42857143 -6 1 C-5.67 1.66 -5.34 2.32 -5 3 C-3.35 3 -1.7 3 0 3 C0 2.01 0 1.02 0 0 Z " fill="#CECDCD" transform="translate(146,97)"/>
<path d="M0 0 C0.66 0.33 1.32 0.66 2 1 C0.4840625 2.2375 0.4840625 2.2375 -1.0625 3.5 C-3.73018804 5.77820559 -6.05456632 8.12985975 -8.3125 10.8125 C-12.44128894 15.68597918 -17.18764173 19.8170246 -22 24 C-22 19.83277414 -19.7221982 18.11720418 -17 15.25 C-16.25266602 14.44973389 -16.25266602 14.44973389 -15.49023438 13.63330078 C-10.72164416 8.58771608 -5.78945907 3.85963938 0 0 Z " fill="#C6C5C5" transform="translate(129,104)"/>
<path d="M0 0 C1 2 1 2 0.0625 5.125 C-0.288125 6.07375 -0.63875 7.0225 -1 8 C-0.01 8 0.98 8 2 8 C2 6.35 2 4.7 2 3 C2.99 3 3.98 3 5 3 C4.43454163 6.95820859 3.19097652 9.6659053 1 13 C-0.98 12.34 -2.96 11.68 -5 11 C-4.67 9.02 -4.34 7.04 -4 5 C-3.34 5 -2.68 5 -2 5 C-1.34 3.35 -0.68 1.7 0 0 Z " fill="#C8C8C8" transform="translate(98,138)"/>
<path d="M0 0 C0.99 0.33 1.98 0.66 3 1 C-2.36076281 4.26307302 -7.93607386 7.27199308 -14 9 C-14.99 8.67 -15.98 8.34 -17 8 C-12.96233746 5.30822497 -8.70843164 3.60835886 -4.20703125 1.8671875 C-2.00662743 1.0404557 -2.00662743 1.0404557 0 0 Z " fill="#D1D1D0" transform="translate(255,303)"/>
<path d="M0 0 C0.433125 0.9590625 0.433125 0.9590625 0.875 1.9375 C1.82823451 4.15206079 1.82823451 4.15206079 4 5 C4 4.01 4 3.02 4 2 C4.66 2 5.32 2 6 2 C5.42655063 4.86724686 5.1385485 5.8614515 3 8 C3 7.34 3 6.68 3 6 C1.35 6.33 -0.3 6.66 -2 7 C-2 3 -2 3 0 0 Z " fill="#AFAEAE" transform="translate(102,132)"/>
<path d="M0 0 C0 1.65 0 3.3 0 5 C-1.98 5.33 -3.96 5.66 -6 6 C-6.33 4.68 -6.66 3.36 -7 2 C-4.35261084 0.5393715 -3.10551666 0 0 0 Z " fill="#8F8E8F" transform="translate(172,87)"/>
<path d="M0 0 C0.66 0.33 1.32 0.66 2 1 C2 2.32 2 3.64 2 5 C-2.455 5.495 -2.455 5.495 -7 6 C-2.25 1.125 -2.25 1.125 0 0 Z " fill="#B6B6B5" transform="translate(138,98)"/>
<path d="M0 0 C0.66 0.33 1.32 0.66 2 1 C1.67 1.99 1.34 2.98 1 4 C-0.65 4 -2.3 4 -4 4 C-4.33 4.99 -4.66 5.98 -5 7 C-5.33 5.68 -5.66 4.36 -6 3 C-4.03533587 1.93224776 -2.03144641 0.93446535 0 0 Z " fill="#919191" transform="translate(145,96)"/>
<path d="M0 0 C1.98 0 3.96 0 6 0 C6 0.99 6 1.98 6 3 C4.02 3.33 2.04 3.66 0 4 C0 2.68 0 1.36 0 0 Z " fill="#BDBDBD" transform="translate(172,87)"/>
<path d="M0 0 C1.32 0 2.64 0 4 0 C4 0.99 4 1.98 4 3 C2.02 3.99 0.04 4.98 -2 6 C-2 5.01 -2 4.02 -2 3 C-1.34 3 -0.68 3 0 3 C0 2.01 0 1.02 0 0 Z " fill="#BCBCBC" transform="translate(146,97)"/>
<path d="M0 0 C0 0.99 0 1.98 0 3 C-2.64 3 -5.28 3 -8 3 C-5.53387212 -0.1151089 -3.89156016 -0.31553191 0 0 Z " fill="#868686" transform="translate(162,90)"/>
<path d="M0 0 C2.64 0 5.28 0 8 0 C7.67 0.66 7.34 1.32 7 2 C4.67843403 2.40729228 2.3431213 2.74438677 0 3 C0 2.01 0 1.02 0 0 Z " fill="#CBCBCB" transform="translate(153,94)"/>
<path d="" fill="#FFFFFF" transform="translate(0,0)"/>
</svg>
